PathFileType	4	(X/Y/Z)	C:/Users/beibeiliu/ov580/test_trc/User3\sequence.7_training_dense_right.trc
DataRate	CameraRate	NumFrames	NumMarkers	Units	OrigDataRate	OrigDataStartFrame	OrigNumFrames
120	120	8	19	mm	120	76	200
Frame#	Time	ThumbCMC			ThumbMCP			ThumbIP			ThumbTip			IndexMCP			IndexPIP			IndexTip			MiddleMCP			MiddlePIP			MiddleTip			RingMCP			RingPIP			RingTip			PinkyMCP			PinkyPIP			PinkyTip			BackHand1			BackHand2			BackHand3	
		X0	Y0	Z0	X1	Y1	Z1	X2	Y2	Z2	X3	Y3	Z3	X4	Y4	Z4	X5	Y5	Z5	X6	Y6	Z6	X7	Y7	Z7	X8	Y8	Z8	X9	Y9	Z9	X10	Y10	Z10	X11	Y11	Z11	X12	Y12	Z12	X13	Y13	Z13	X14	Y14	Z14	X15	Y15	Z15	X16	Y16	Z16	X17	Y17	Z17	X18	Y18	Z18	
75	0.625	35.2031	-7.91255	-11.8428	15.4445	-16.967	-33.4988	1.35791	-24.1688	-57.5091	-6.40899	-32.2671	-83.0982	49.7219	16.7102	-83.0495	38.4894	16.7899	-109.843	27.1765	6.19657	-132.425	78.7269	10.5048	-85.3278	79.3222	6.33112	-119.61	73.403	-15.0282	-148.512	89.1765	-20.137	-86.0687	79.6692	-39.7031	-101.713	63.5829	-67.6686	-93.1218	103.892	-31.8962	-69.572	92.1155	-54.2244	-82.5784	69.5289	-65.9751	-62.0556	100.167	-0.518382	-32.2453	98.2159	-4.2612	0.557491	66.6191	14.5442	-17.303	
76	0.633333	34.9902	-7.76091	-9.87528	14.7929	-16.1723	-37.7857	1.81169	-24.1828	-59.3435	-8.72454	-32.4533	-80.4159	52.6058	15.9242	-79.7861	36.2454	18.0835	-107.507	28.8365	3.68432	-135.391	78.9953	10.7305	-87.097	80.7021	5.80157	-118.699	72.0329	-11.917	-145.519	87.2222	-17.3485	-82.5157	78.4926	-43.385	-102.242	63.0933	-67.388	-93.2933	101.712	-30.9388	-69.9446	90.6207	-52.8341	-83.2288	66.7503	-63.9567	-63.7887	96.6722	-0.69136	-27.4414	101.03	-2.34599	-1.6151	67.7758	12.1432	-12.2226	
77	0.641667	33.2984	-8.45036	-9.99958	17.5715	-19.3722	-33.6974	1.27224	-24.3868	-57.6198	-8.02385	-33.4764	-79.7089	46.5364	17.2375	-82.1938	36.8	15.2604	-108.589	30.2986	3.45976	-133.43	79.7165	8.58849	-87.4009	77.1015	6.05179	-116.515	74.882	-14.064	-145.43	89.9342	-21.3267	-86.1691	77.6106	-40.2558	-101.16	62.2268	-66.2082	-95.2354	104.735	-34.6998	-69.4381	90.0911	-56.7431	-80.9229	69.0596	-66.177	-59.3368	96.4066	-1.73549	-30.2933	99.7813	-5.34033	-1.60023	68.9656	9.46978	-14.698	
78	0.65	32.5893	-9.83219	-7.87391	14.7232	-20.0289	-31.0328	-1.67463	-25.153	-61.5845	-4.38596	-34.7393	-82.2654	49.9552	12.5252	-78.842	35.7995	15.1646	-107.43	30.0205	2.56839	-132.723	79.155	6.87496	-83.2304	82.1682	2.89069	-115.532	74.8248	-14.3459	-144.371	89.4827	-22.6709	-83.4033	80.7969	-46.2888	-100.967	62.9594	-70.3147	-92.8545	103.148	-36.7222	-71.9014	92.1037	-57.8858	-80.8584	68.8253	-67.5976	-63.5776	96.3707	-0.748317	-28.5844	96.0445	-2.8176	2.51736	67.4215	8.91323	-15.2272	
79	0.658333	32.3102	-12.4006	-9.885	13.9244	-20.7505	-33.126	2.34639	-28.5793	-55.2712	-3.39914	-35.9533	-79.8588	46.2268	12.4612	-81.9313	39.013	11.6692	-110.609	25.9917	0.849451	-131.571	77.6273	5.45501	-84.2021	79.8173	1.59108	-114.919	72.2618	-18.9892	-147.596	87.1856	-22.3438	-80.0481	78.3155	-47.0083	-101.195	61.6073	-74.0392	-91.704	104.367	-38.6531	-70.9739	88.1429	-56.4919	-81.8428	68.4972	-71.8427	-60.7259	95.7667	-3.03219	-26.9971	95.0824	-4.48585	0.233066	64.8708	6.45517	-13.0815	
80	0.666667	32.1981	-12.9429	-8.21647	13.3436	-22.3172	-35.2112	-0.0449412	-29.3398	-57.7041	-9.84771	-37.5692	-78.6136	49.6572	10.6278	-82.308	36.676	10.7145	-108.866	26.8166	-0.831272	-132.12	79.196	2.39927	-85.7136	81.2666	-1.54014	-116.005	71.2178	-18.3128	-145.051	87.6065	-23.9547	-80.4227	78.1002	-46.2626	-99.7111	60.7837	-74.075	-93.8845	101.192	-37.6673	-69.7851	87.7938	-61.6848	-80.4861	67.5028	-71.9359	-58.7922	94.0314	-4.24228	-27.1042	95.1756	-7.83842	1.01152	64.3828	4.88999	-12.8253	
81	0.675	31.2818	-12.9389	-8.44174	13.2482	-22.693	-32.9169	-1.94642	-28.3994	-56.5506	-4.8213	-37.6989	-77.9308	45.1907	11.6958	-80.6463	34.4422	10.8922	-107.921	23.7815	-0.253544	-132.673	80.4459	3.17624	-87.6062	78.9455	-3.02604	-118.36	68.722	-18.5492	-145.496	87.1279	-25.4058	-82.2429	74.4921	-47.9106	-100.659	61.6154	-76.4983	-92.291	100.327	-38.9784	-70.6681	87.8107	-61.8262	-80.1805	66.7077	-72.9205	-62.7395	94.1634	-5.62101	-25.1218	98.1841	-8.6895	3.09712	67.8944	4.7312	-13.4309	
82	0.683333	28.8041	-9.63443	-8.59187	13.2526	-19.877	-32.5344	0.75539	-26.423	-58.3021	-5.78981	-35.58	-78.9591	48.4484	12.6301	-81.8755	36.887	13.5349	-106.092	28.224	2.81405	-128.31	77.6793	5.58916	-84.1959	75.1184	4.12996	-112.686	69.0398	-17.2243	-146.341	85.3394	-23.2891	-82.2566	73.1403	-46.3369	-98.7865	60.7838	-70.8915	-92.4563	100.376	-34.9989	-67.1078	87.9062	-59.2732	-79.3078	67.0542	-69.9733	-63.6036	96.0985	-3.18218	-29.2849	96.3196	-4.05921	0.853153	65.8285	7.69169	-15.0726	
